<svg xmlns="http://www.w3.org/2000/svg" xmlns:xlink="http://www.w3.org/1999/xlink" width="10.5" height="12" viewBox="0 0 10.5 12">
  <defs>
    <clipPath id="clip-path">
      <rect id="Rectángulo_5630" data-name="Rectángulo 5630" width="10.5" height="12" fill="#4A2582"/>
    </clipPath>
  </defs>
  <g id="Grupo_11059" data-name="Grupo 11059" opacity="0.7">
    <g id="Grupo_11058" data-name="Grupo 11058" clip-path="url(#clip-path)">
      <path id="Trazado_28940" data-name="Trazado 28940" d="M5.25,0A5.25,5.25,0,0,0,3.173,10.071a12.536,12.536,0,0,1-.164-1.363,4.124,4.124,0,1,1,4.481,0,12.591,12.591,0,0,1-.165,1.363A5.25,5.25,0,0,0,5.25,0m0,7.313c-.771,0-1.5.2-1.5,1.025a16.911,16.911,0,0,0,.483,3.112c.121.446.574.55,1.017.55s.9-.1,1.017-.548A17.067,17.067,0,0,0,6.75,8.339c0-.825-.729-1.027-1.5-1.027m0-.75A1.313,1.313,0,1,0,3.938,5.25,1.312,1.312,0,0,0,5.25,6.563M8.625,5.25a3.375,3.375,0,1,0-5.507,2.6,1.508,1.508,0,0,1,.751-.821s.007,0,.012,0a2.25,2.25,0,1,1,2.738,0l.011,0a1.507,1.507,0,0,1,.751.821,3.353,3.353,0,0,0,1.243-2.6" fill="#4A2582"/>
    </g>
  </g>
</svg>
