<svg id="volume--mute--filled" xmlns="http://www.w3.org/2000/svg" width="16" height="16" viewBox="0 0 16 16">
  <path id="Trazado_28922" data-name="Trazado 28922" d="M26,11.7l-.7-.7-1.8,1.8L21.7,11l-.7.7,1.8,1.8L21,15.3l.7.7,1.8-1.8L25.3,16l.7-.7-1.8-1.8Z" transform="translate(-10.5 -5.5)" fill="#4a2582"/>
  <path id="Trazado_28923" data-name="Trazado 28923" d="M10,16a.5.5,0,0,1-.355-.15L5.835,12H2.5a.5.5,0,0,1-.5-.5H2v-5A.5.5,0,0,1,2.5,6H5.835l3.81-3.85a.5.5,0,0,1,.855.35v13A.5.5,0,0,1,10,16Z" transform="translate(-1 -1.005)" fill="none" stroke="#4a2582" stroke-width="1"/>
  <rect id="_Transparent_Rectangle_" data-name="&lt;Transparent Rectangle&gt;" width="16" height="16" fill="none"/>
</svg>
