<svg id="close--filled" xmlns="http://www.w3.org/2000/svg" width="32" height="32" viewBox="0 0 32 32">
  <path id="Trazado_198" data-name="Trazado 198" d="M16,2A13.914,13.914,0,0,0,2,16,13.914,13.914,0,0,0,16,30,13.914,13.914,0,0,0,30,16,13.914,13.914,0,0,0,16,2Zm5.4,21L16,17.6,10.6,23,9,21.4,14.4,16,9,10.6,10.6,9,16,14.4,21.4,9,23,10.6,17.6,16,23,21.4Z" fill="#fff"/>
  <path id="inner-path" d="M14.4,16,9,10.6,10.6,9,16,14.4,21.4,9,23,10.6,17.6,16,23,21.4,21.4,23,16,17.6,10.6,23,9,21.4,14.4,16" fill="#fff" opacity="0"/>
  <rect id="_Transparent_Rectangle_" width="32" height="32" fill="none"/>
</svg>
