<svg id="volume--up" xmlns="http://www.w3.org/2000/svg" width="16" height="16" viewBox="0 0 16 16">
  <path id="Trazado_28919" data-name="Trazado 28919" d="M26.25,8.08l-.765.645a5,5,0,0,1-.145,6.615l.735.7A6,6,0,0,0,26.25,8.1Z" transform="translate(-12.67 -4.04)" fill="#fff"/>
  <path id="Trazado_28920" data-name="Trazado 28920" d="M21.49,11.355a3,3,0,0,1-.09,3.97l.735.68a4,4,0,0,0,.115-5.3Z" transform="translate(-10.7 -5.355)" fill="#fff"/>
  <path id="Trazado_28921" data-name="Trazado 28921" d="M10,16a.5.5,0,0,1-.355-.15L5.835,12H2.5a.5.5,0,0,1-.5-.5H2v-5A.5.5,0,0,1,2.5,6H5.835l3.81-3.85a.5.5,0,0,1,.855.35v13A.5.5,0,0,1,10,16ZM3,11H6.04a.5.5,0,0,1,.355.15L9.5,14.29V3.72L6.395,6.855A.5.5,0,0,1,6.04,7H3Z" transform="translate(-1 -1.005)" fill="#fff"/>
  <rect id="_Transparent_Rectangle_" data-name="&lt;Transparent Rectangle&gt;" width="16" height="16" fill="none"/>
</svg>
