<svg xmlns="http://www.w3.org/2000/svg" width="85.855" height="48" viewBox="0 0 85.855 48">
  <g id="PARTOS_ROTOS_01" data-name="PARTOS ROTOS_01" transform="translate(-62.25 -125.27)">
    <g id="Grupo_21" data-name="Grupo 21" transform="translate(88.389 144.916)">
      <path id="Trazado_223" data-name="Trazado 223" d="M145.06,199.682V187.76H150.2a3.679,3.679,0,0,1,1.613.354,4,4,0,0,1,1.275.95,4.448,4.448,0,0,1,.83,1.335,4.02,4.02,0,0,1,.294,1.5,4.273,4.273,0,0,1-1.872,3.535,3.586,3.586,0,0,1-2.058.6h-1.948v3.661H145.06Zm3.276-6.515h1.73a.7.7,0,0,0,.385-.117.86.86,0,0,0,.309-.4,1.868,1.868,0,0,0,.126-.754,1.736,1.736,0,0,0-.142-.78.832.832,0,0,0-.354-.385.89.89,0,0,0-.41-.11h-1.644Z" transform="translate(-145.06 -187.681)" fill="#4a2582"/>
      <path id="Trazado_224" data-name="Trazado 224" d="M173.25,187.76h3.661l3.794,11.922h-3.324l-.616-2.336H173.4l-.616,2.336H169.44Zm2.939,7.405-1.108-4.2-1.108,4.2Z" transform="translate(-161.745 -187.681)" fill="#4a2582"/>
      <path id="Trazado_225" data-name="Trazado 225" d="M205.61,199.682V187.76h5.473a3.679,3.679,0,0,1,1.613.354,4,4,0,0,1,1.275.95,4.448,4.448,0,0,1,.83,1.335,4.021,4.021,0,0,1,.294,1.5,4.325,4.325,0,0,1-.2,1.326,4.034,4.034,0,0,1-1.512,2.083l2.519,4.384h-3.592l-2.1-3.661h-1.326v3.661H205.61Zm3.273-6.515h2.064a.6.6,0,0,0,.385-.152,1.135,1.135,0,0,0,.309-.436,1.675,1.675,0,0,0,.126-.688,1.524,1.524,0,0,0-.142-.7,1.151,1.151,0,0,0-.354-.429.71.71,0,0,0-.41-.151H208.88v2.554Z" transform="translate(-186.498 -187.681)" fill="#4a2582"/>
      <path id="Trazado_226" data-name="Trazado 226" d="M245.762,190.607h-3.425v9.068h-3.273v-9.068H235.62V187.75h10.142Z" transform="translate(-207.035 -187.674)" fill="#4a2582"/>
      <path id="Trazado_227" data-name="Trazado 227" d="M272.229,199.6a5.824,5.824,0,0,1-2.468-.511,5.963,5.963,0,0,1-1.906-1.376,6.171,6.171,0,0,1-1.225-1.948,6.071,6.071,0,0,1-.429-2.241,5.756,5.756,0,0,1,.455-2.266,6.287,6.287,0,0,1,1.269-1.922A5.945,5.945,0,0,1,269.855,188a6.04,6.04,0,0,1,2.443-.486,5.751,5.751,0,0,1,4.365,1.9,6.407,6.407,0,0,1,1.218,1.957,6.037,6.037,0,0,1,.429,2.225,5.829,5.829,0,0,1-.445,2.251,5.981,5.981,0,0,1-5.637,3.756Zm-2.7-6.048a4.114,4.114,0,0,0,.167,1.168,3.115,3.115,0,0,0,.505,1.007,2.4,2.4,0,0,0,.849.7,2.658,2.658,0,0,0,1.218.259,2.624,2.624,0,0,0,1.225-.268,2.352,2.352,0,0,0,.849-.729,3.268,3.268,0,0,0,.486-1.026,4.155,4.155,0,0,0,.161-1.149,4.016,4.016,0,0,0-.167-1.158,3.148,3.148,0,0,0-.505-1,2.314,2.314,0,0,0-.855-.7,2.758,2.758,0,0,0-1.209-.253,2.581,2.581,0,0,0-1.218.268,2.522,2.522,0,0,0-.849.713,3.032,3.032,0,0,0-.5,1.007A4.117,4.117,0,0,0,269.527,193.548Z" transform="translate(-227.963 -187.51)" fill="#4a2582"/>
      <path id="Trazado_228" data-name="Trazado 228" d="M311.474,191.5a10.646,10.646,0,0,0-1.042-.546,9.138,9.138,0,0,0-1.023-.379,3.8,3.8,0,0,0-1.092-.167,1.554,1.554,0,0,0-.688.133.462.462,0,0,0-.268.448.56.56,0,0,0,.268.483,2.836,2.836,0,0,0,.764.335c.331.1.726.221,1.184.366a10.483,10.483,0,0,1,1.916.764,3.3,3.3,0,0,1,1.244,1.108,3.252,3.252,0,0,1,.436,1.79,3.79,3.79,0,0,1-.385,1.79,3.124,3.124,0,0,1-1.042,1.155,4.59,4.59,0,0,1-1.461.625,7.164,7.164,0,0,1-1.645.189,9.439,9.439,0,0,1-1.79-.177,12.157,12.157,0,0,1-1.806-.486,9.75,9.75,0,0,1-1.594-.729l1.411-2.872a13.118,13.118,0,0,0,1.225.657,9.764,9.764,0,0,0,1.234.454,4.753,4.753,0,0,0,1.37.2,1.471,1.471,0,0,0,.748-.136.418.418,0,0,0,.212-.36.6.6,0,0,0-.369-.543,5.646,5.646,0,0,0-.966-.366c-.4-.117-.836-.253-1.319-.407a7.517,7.517,0,0,1-1.714-.792,2.822,2.822,0,0,1-.991-1.051,3.152,3.152,0,0,1-.319-1.477,3.732,3.732,0,0,1,.622-2.2,3.925,3.925,0,0,1,1.638-1.341,5.259,5.259,0,0,1,2.19-.458,6.8,6.8,0,0,1,1.689.208,10.705,10.705,0,0,1,1.528.511c.477.2.893.391,1.25.571Z" transform="translate(-253.455 -187.51)" fill="#4a2582"/>
      <path id="Trazado_229" data-name="Trazado 229" d="M145.06,240.042V228.12h5.473a3.679,3.679,0,0,1,1.613.354,4,4,0,0,1,1.275.95,4.448,4.448,0,0,1,.83,1.335,4.016,4.016,0,0,1,.294,1.493,4.326,4.326,0,0,1-.2,1.326,4.034,4.034,0,0,1-1.512,2.083l2.519,4.384h-3.592l-2.1-3.661h-1.326v3.661H145.06Zm3.276-6.515H150.4a.6.6,0,0,0,.385-.152,1.135,1.135,0,0,0,.309-.436,1.675,1.675,0,0,0,.126-.688,1.524,1.524,0,0,0-.142-.7,1.15,1.15,0,0,0-.354-.429.7.7,0,0,0-.41-.152h-1.982v2.554Z" transform="translate(-145.06 -215.302)" fill="#4a2582"/>
      <path id="Trazado_230" data-name="Trazado 230" d="M181.789,239.956a5.824,5.824,0,0,1-2.468-.511,5.964,5.964,0,0,1-1.906-1.376,6.172,6.172,0,0,1-1.225-1.948,6.071,6.071,0,0,1-.429-2.241,5.754,5.754,0,0,1,.455-2.266,6.286,6.286,0,0,1,1.269-1.922,5.946,5.946,0,0,1,1.932-1.335,6.041,6.041,0,0,1,2.443-.486,5.752,5.752,0,0,1,4.365,1.9,6.408,6.408,0,0,1,1.218,1.957,6.039,6.039,0,0,1,.429,2.225,5.83,5.83,0,0,1-.445,2.251,5.981,5.981,0,0,1-5.637,3.756Zm-2.705-6.048a4.113,4.113,0,0,0,.167,1.168,3.113,3.113,0,0,0,.505,1.007,2.4,2.4,0,0,0,.849.7,2.659,2.659,0,0,0,1.218.259,2.624,2.624,0,0,0,1.225-.268,2.352,2.352,0,0,0,.849-.729,3.267,3.267,0,0,0,.486-1.026,4.155,4.155,0,0,0,.161-1.149,4.017,4.017,0,0,0-.167-1.158,3.181,3.181,0,0,0-.505-1,2.314,2.314,0,0,0-.855-.7,2.759,2.759,0,0,0-1.209-.253,2.581,2.581,0,0,0-1.218.268,2.522,2.522,0,0,0-.849.713,3.032,3.032,0,0,0-.5,1.007A4.236,4.236,0,0,0,179.084,233.908Z" transform="translate(-166.07 -215.131)" fill="#4a2582"/>
      <path id="Trazado_231" data-name="Trazado 231" d="M222.722,230.967H219.3v9.068h-3.273v-9.068H212.58V228.11h10.142Z" transform="translate(-191.268 -215.295)" fill="#4a2582"/>
      <path id="Trazado_232" data-name="Trazado 232" d="M249.2,239.956a5.824,5.824,0,0,1-2.468-.511,5.964,5.964,0,0,1-1.907-1.376,6.172,6.172,0,0,1-1.225-1.948,6.069,6.069,0,0,1-.429-2.241,5.756,5.756,0,0,1,.455-2.266,6.286,6.286,0,0,1,1.269-1.922,5.945,5.945,0,0,1,1.932-1.335,6.041,6.041,0,0,1,2.443-.486,5.752,5.752,0,0,1,4.365,1.9,6.406,6.406,0,0,1,1.218,1.957,6.038,6.038,0,0,1,.429,2.225,5.83,5.83,0,0,1-.445,2.251,5.981,5.981,0,0,1-5.637,3.756Zm-2.705-6.048a4.114,4.114,0,0,0,.167,1.168,3.115,3.115,0,0,0,.505,1.007,2.4,2.4,0,0,0,.849.7,2.659,2.659,0,0,0,1.218.259,2.623,2.623,0,0,0,1.225-.268,2.351,2.351,0,0,0,.849-.729,3.268,3.268,0,0,0,.486-1.026,4.155,4.155,0,0,0,.161-1.149,4.016,4.016,0,0,0-.167-1.158,3.18,3.18,0,0,0-.505-1,2.314,2.314,0,0,0-.855-.7,2.759,2.759,0,0,0-1.209-.253,2.58,2.58,0,0,0-1.218.268,2.522,2.522,0,0,0-.849.713,3.033,3.033,0,0,0-.5,1.007A4.235,4.235,0,0,0,246.494,233.908Z" transform="translate(-212.202 -215.131)" fill="#4a2582"/>
      <path id="Trazado_233" data-name="Trazado 233" d="M288.444,231.867a10.612,10.612,0,0,0-1.042-.546,9.138,9.138,0,0,0-1.023-.379,3.8,3.8,0,0,0-1.092-.167,1.555,1.555,0,0,0-.688.133.459.459,0,0,0-.268.448.56.56,0,0,0,.268.483,2.838,2.838,0,0,0,.764.335c.331.1.726.221,1.184.366a10.482,10.482,0,0,1,1.916.764,3.3,3.3,0,0,1,1.244,1.108,3.252,3.252,0,0,1,.436,1.79,3.79,3.79,0,0,1-.385,1.79,3.123,3.123,0,0,1-1.042,1.155,4.591,4.591,0,0,1-1.462.625,7.162,7.162,0,0,1-1.644.189,9.435,9.435,0,0,1-1.79-.177,12.147,12.147,0,0,1-1.805-.486,9.739,9.739,0,0,1-1.594-.729l1.411-2.872a13.124,13.124,0,0,0,1.225.657,9.765,9.765,0,0,0,1.234.455,4.754,4.754,0,0,0,1.37.2,1.471,1.471,0,0,0,.748-.136.418.418,0,0,0,.211-.36.6.6,0,0,0-.369-.543,5.644,5.644,0,0,0-.966-.366c-.4-.117-.836-.253-1.319-.407a7.518,7.518,0,0,1-1.714-.792,2.823,2.823,0,0,1-.991-1.051,3.149,3.149,0,0,1-.319-1.474,3.732,3.732,0,0,1,.622-2.2,3.926,3.926,0,0,1,1.638-1.341,5.259,5.259,0,0,1,2.191-.458,6.8,6.8,0,0,1,1.689.208,10.7,10.7,0,0,1,1.528.511c.477.2.893.391,1.25.571Z" transform="translate(-237.694 -215.137)" fill="#4a2582"/>
    </g>
    <g id="Grupo_22" data-name="Grupo 22" transform="translate(78.06 141.701)">
      <path id="Trazado_234" data-name="Trazado 234" d="M114.413,208.894a1.074,1.074,0,0,1-1.045-.821c-1.831-7.471-.849-10.842.1-14.1.969-3.327,1.97-6.767-.1-15.315a1.077,1.077,0,0,1,2.093-.508c2.206,9.11,1.124,12.828.076,16.426-.909,3.125-1.771,6.076-.076,12.986a1.078,1.078,0,0,1-.789,1.3A1.056,1.056,0,0,1,114.413,208.894Z" transform="translate(-112.338 -177.324)" fill="#be1622"/>
    </g>
    <g id="Grupo_23" data-name="Grupo 23" transform="translate(76.338 144.629)">
      <path id="Trazado_235" data-name="Trazado 235" d="M107.691,190.12a.809.809,0,0,1-.2-1.594l7.55-1.9a.809.809,0,1,1,.395,1.569l-7.55,1.9A.716.716,0,0,1,107.691,190.12Z" transform="translate(-106.884 -186.601)" fill="#4a2582"/>
    </g>
    <g id="Grupo_24" data-name="Grupo 24" transform="translate(76.684 151.487)">
      <path id="Trazado_236" data-name="Trazado 236" d="M108.788,209.968a.808.808,0,0,1,0-1.616l7.787-.022h0a.808.808,0,0,1,0,1.616l-7.79.022Z" transform="translate(-107.98 -208.33)" fill="#4a2582"/>
    </g>
    <g id="Grupo_25" data-name="Grupo 25" transform="translate(75.778 156.326)">
      <path id="Trazado_237" data-name="Trazado 237" d="M113.514,226.984a.841.841,0,0,1-.177-.019l-7.6-1.708a.809.809,0,0,1,.354-1.578l7.6,1.708a.808.808,0,0,1-.177,1.6Z" transform="translate(-105.107 -223.66)" fill="#4a2582"/>
    </g>
    <g id="Grupo_26" data-name="Grupo 26" transform="translate(74.178 162.955)">
      <path id="Trazado_238" data-name="Trazado 238" d="M100.848,246.3a.808.808,0,0,1,0-1.616l7.787-.022h0a.808.808,0,0,1,0,1.616l-7.79.022Z" transform="translate(-100.04 -244.66)" fill="#4a2582"/>
    </g>
    <g id="Grupo_27" data-name="Grupo 27" transform="translate(75.246 167.893)">
      <path id="Trazado_239" data-name="Trazado 239" d="M104.23,263.688a.808.808,0,0,1-.183-1.594l7.585-1.768A.807.807,0,1,1,112,261.9l-7.585,1.768A.932.932,0,0,1,104.23,263.688Z" transform="translate(-103.423 -260.306)" fill="#4a2582"/>
    </g>
    <g id="Grupo_28" data-name="Grupo 28" transform="translate(62.25 125.27)">
      <path id="Trazado_240" data-name="Trazado 240" d="M130.115,130.58a29.465,29.465,0,0,1-.937,8.557c-2.393-1.338-4.722-2.639-7.178-4.012C124.74,133.591,127.379,132.114,130.115,130.58Z" transform="translate(-103.14 -128.904)" fill="#4a2582"/>
      <path id="Trazado_241" data-name="Trazado 241" d="M90.994,135.438a19.034,19.034,0,0,0,1.891,6.8,7.551,7.551,0,0,0,5.413,4.4,9.537,9.537,0,0,0,2.819.019,6.545,6.545,0,0,0,2.894-1.215,10.433,10.433,0,0,0,3.425-5.1c.12-.328-.1-.407-.306-.521q-7.949-4.446-15.9-8.892c-.126-.069-.262-.12-.477-.221,0,.262-.009.442,0,.619C90.827,132.692,90.846,134.071,90.994,135.438Z" transform="translate(-81.752 -128.986)" fill="#4a2582"/>
      <path id="Trazado_242" data-name="Trazado 242" d="M76.905,157.178a8.642,8.642,0,0,1-4.182-4.059,18.215,18.215,0,0,1-2.08-7.519,16.235,16.235,0,0,0-5.492,3.2,17.021,17.021,0,0,0-2.9,3.106,30.718,30.718,0,0,0,6.979,3.961A26.379,26.379,0,0,0,76.905,157.178Z" transform="translate(-62.25 -139.183)" fill="#9479c2"/>
      <path id="Trazado_243" data-name="Trazado 243" d="M129.5,158.17a9.412,9.412,0,0,0,4.63-4.993,22.187,22.187,0,0,0,1.566-6.127s1.856.069,4.754,2.355a14.136,14.136,0,0,1,3.011,3.207,14.841,14.841,0,0,1-6.423,4.062A31.42,31.42,0,0,1,129.5,158.17Z" transform="translate(-108.273 -140.175)" fill="#9479c2"/>
      <path id="Trazado_244" data-name="Trazado 244" d="M104.5,128.357l4.741-3.087,4.993,2.9-5.025,2.841Z" transform="translate(-91.164 -125.27)" fill="#4a2582"/>
    </g>
  </g>
</svg>
