<svg xmlns="http://www.w3.org/2000/svg" width="11.386" height="20" viewBox="0 0 11.386 20">
  <g id="Grupo_11052" data-name="Grupo 11052" transform="translate(-1011.872 -4114)">
    <path id="Trazado_28934" data-name="Trazado 28934" d="M310.874,85.4a2.1,2.1,0,1,0-2.1-2.1A2.1,2.1,0,0,0,310.874,85.4Z" transform="translate(706.691 4032.8)" fill="#B987FF"/>
    <path id="Trazado_28935" data-name="Trazado 28935" d="M253.719,176.8a.157.157,0,0,0-.007-.02l-2.042-5.091a2.09,2.09,0,0,0-1.776-1.4h-3.6a2.1,2.1,0,0,0-1.78,1.412l-2.039,5.083c0,.006,0,.012-.006.019a1.04,1.04,0,0,0-.071.372,1.005,1.005,0,0,0,1.954.351l1.5-3.779a.162.162,0,0,0,.008-.028.153.153,0,0,1,.141-.1.147.147,0,0,1,.143.15.155.155,0,0,1-.011.058l-2.526,6.347a.774.774,0,0,0-.058.294.788.788,0,0,0,.783.791h1.44v3.606a1.043,1.043,0,0,0,2.061,0s0-.009,0-.014v-3.625h.511v3.616a.14.14,0,0,0,0,.023,1.044,1.044,0,0,0,2.061.016.132.132,0,0,0,0-.018v-3.6h1.44a.787.787,0,0,0,.782-.791.774.774,0,0,0-.056-.292l-2.526-6.344a.179.179,0,0,1-.011-.061.145.145,0,0,1,.143-.15.152.152,0,0,1,.14.1.179.179,0,0,0,.008.029l1.5,3.774a1.005,1.005,0,0,0,1.955-.346,1.042,1.042,0,0,0-.07-.371Z" transform="translate(769.469 3948.26)" fill="#B987FF"/>
  </g>
</svg>
